# This file uses centimeters as units for non-parametric coordinates.

mtllib PeriodicTable.mtl
g default
v 0.000000 4.479889 26.867451
v 0.000000 -27.019106 27.218754
v 0.000000 3.876667 -27.218754
v 0.000000 -27.622324 -26.867443
vt 0.511301 0.005445
vt 0.903292 0.009031
vt 0.897134 0.682108
vt 0.505144 0.678523
vn 1.000000 0.000000 0.000000
vn 1.000000 0.000000 0.000000
vn 1.000000 0.000000 0.000000
vn 1.000000 0.000000 0.000000
s off
g polySurface256 Clock
usemtl ClockShader
f 1/1/1 2/2/2 4/3/3 3/4/4
